IKResults
version=1
nRows=21
nColumns=24
inDegrees=yes

Units are S.I. units (second, meters, Newtons, ...)
If the header above contains a line with 'inDegrees', this indicates whether rotational values are in degrees (yes) or radians (no).

endheader
time	pelvis_tilt	pelvis_list	pelvis_rotation	pelvis_tx	pelvis_ty	pelvis_tz	hip_flexion_r	hip_adduction_r	hip_rotation_r	knee_angle_r	ankle_angle_r	subtalar_angle_r	mtp_angle_r	hip_flexion_l	hip_adduction_l	hip_rotation_l	knee_angle_l	ankle_angle_l	subtalar_angle_l	mtp_angle_l	lumbar_extension	lumbar_bending	lumbar_rotation
0.200000	6.701618	2.642513	-178.239632	0.219423	0.855844	-1.218258	11.262021	-8.082867	-33.374586	-10.173471	0.754215	10.919157	0.000000	12.449522	-13.725115	-30.876230	-9.952854	2.112569	15.736195	0.000000	4.600564	0.968872	-1.281243
0.205000	6.696980	2.640801	-178.235450	0.219476	0.855827	-1.218314	11.261971	-8.080440	-33.371027	-10.177003	0.749264	10.919268	0.000000	12.449294	-13.730213	-30.873531	-9.955672	2.111297	15.738186	0.000000	4.601993	0.961106	-1.278711
0.210000	6.692844	2.632838	-178.221881	0.219574	0.855786	-1.218370	11.258746	-8.083655	-33.340535	-10.170451	0.714586	10.932113	0.000000	12.460220	-13.725934	-30.866458	-9.971578	2.107037	15.752997	0.000000	4.595820	0.948085	-1.281465
0.215000	6.694963	2.621606	-178.215018	0.219615	0.855773	-1.218428	11.254591	-8.081959	-33.283797	-10.143818	0.614152	10.970365	0.000000	12.459144	-13.714528	-30.872904	-9.959878	2.113209	15.783062	0.000000	4.595111	0.931072	-1.294041
0.220000	6.684494	2.634492	-178.218150	0.219672	0.855787	-1.218469	11.256268	-8.076650	-33.319606	-10.164228	0.661690	10.932745	0.000000	12.449209	-13.731155	-30.877966	-9.952038	2.101751	15.793916	0.000000	4.585698	0.943302	-1.268016
0.225000	6.672761	2.656619	-178.214504	0.219680	0.855773	-1.218449	11.251745	-8.064277	-33.354812	-10.187578	0.730309	10.895591	0.000000	12.433344	-13.752726	-30.885020	-9.937657	2.094173	15.798819	0.000000	4.571251	0.953471	-1.242000
0.230000	6.669720	2.659110	-178.204680	0.219746	0.855777	-1.218494	11.251032	-8.061992	-33.347930	-10.190023	0.730598	10.898577	0.000000	12.436314	-13.756042	-30.883706	-9.934323	2.094817	15.801711	0.000000	4.566608	0.948042	-1.242147
0.235000	6.652979	2.655641	-178.177932	0.219811	0.855760	-1.218566	11.220771	-8.055590	-33.324740	-10.164453	0.729970	10.912413	0.000000	12.436151	-13.761008	-30.870991	-9.953682	2.113465	15.844180	0.000000	4.549133	0.928592	-1.273694
0.240000	6.647907	2.654983	-178.153155	0.219897	0.855741	-1.218645	11.213624	-8.045471	-33.295785	-10.157115	0.667431	10.946082	0.000000	12.447716	-13.760642	-30.859533	-9.954567	2.110084	15.872305	0.000000	4.538206	0.915266	-1.287352
0.245000	6.646504	2.665252	-178.153482	0.219917	0.855745	-1.218642	11.214500	-8.040092	-33.332876	-10.158448	0.683000	10.925267	0.000000	12.435843	-13.769024	-30.858013	-9.934227	2.117242	15.898969	0.000000	4.550776	0.930723	-1.255619
0.250000	6.635170	2.681592	-178.152793	0.219932	0.855766	-1.218647	11.210159	-8.029715	-33.381792	-10.173778	0.747294	10.887835	0.000000	12.428740	-13.790217	-30.860971	-9.931314	2.091418	15.918294	0.000000	4.554039	0.951765	-1.217361
0.255000	6.623449	2.698712	-178.153467	0.219945	0.855809	-1.218623	11.210178	-8.024043	-33.435557	-10.205107	0.807219	10.844451	0.000000	12.417190	-13.809950	-30.865671	-9.922661	2.050465	15.931781	0.000000	4.554893	0.981537	-1.186331
0.260000	6.620481	2.699003	-178.142733	0.220019	0.855817	-1.218669	11.209089	-8.020337	-33.430150	-10.207313	0.805225	10.848181	0.000000	12.421863	-13.813274	-30.866527	-9.922504	2.047545	15.932929	0.000000	4.551685	0.975012	-1.187189
0.265000	6.616611	2.689496	-178.105375	0.220136	0.855805	-1.218745	11.194855	-8.017947	-33.385189	-10.183514	0.749670	10.890276	0.000000	12.457058	-13.810996	-30.857153	-9.969214	2.036028	15.952091	0.000000	4.544932	0.944974	-1.215136
0.270000	6.619590	2.682919	-178.059478	0.220243	0.855790	-1.218823	11.188610	-8.015866	-33.367092	-10.164209	0.670619	10.925402	0.000000	12.491107	-13.809376	-30.846690	-9.993422	2.047835	15.997091	0.000000	4.555486	0.912435	-1.239895
0.275000	6.615978	2.687756	-178.036014	0.220297	0.855806	-1.218866	11.187488	-8.010793	-33.367688	-10.170012	0.669378	10.925994	0.000000	12.498976	-13.813372	-30.853019	-9.986617	2.049460	15.998100	0.000000	4.555610	0.902433	-1.235160
0.280000	6.606486	2.702928	-178.025972	0.220327	0.855843	-1.218859	11.189689	-8.006774	-33.445565	-10.195543	0.719063	10.879017	0.000000	12.503886	-13.832464	-30.865801	-10.001668	2.017062	16.011339	0.000000	4.559029	0.926884	-1.200514
0.285000	6.597169	2.713687	-178.013369	0.220376	0.855847	-1.218881	11.192481	-8.007061	-33.482807	-10.226723	0.773643	10.850768	0.000000	12.511978	-13.849095	-30.838956	-10.013274	1.995752	16.042027	0.000000	4.555313	0.939051	-1.188226
0.290000	6.595256	2.713773	-178.001320	0.220433	0.855819	-1.218884	11.191191	-8.009670	-33.484147	-10.225886	0.778361	10.850055	0.000000	12.520782	-13.846104	-30.842019	-10.015048	1.992757	16.042017	0.000000	4.551279	0.943238	-1.184226
0.295000	6.586173	2.704850	-177.975022	0.220534	0.855772	-1.218926	11.188384	-8.017472	-33.467954	-10.237655	0.761385	10.865723	0.000000	12.553976	-13.848061	-30.838094	-10.081923	1.978759	16.050734	0.000000	4.544622	0.922511	-1.193348
0.300000	6.584608	2.704084	-177.953550	0.220634	0.855758	-1.218971	11.200246	-8.015939	-33.442689	-10.256785	0.719390	10.892580	0.000000	12.587167	-13.857446	-30.829629	-10.124554	1.969172	16.066620	0.000000	4.539210	0.910603	-1.204028
